<svg xmlns="http://www.w3.org/2000/svg" xmlns:xlink="http://www.w3.org/1999/xlink" width="785" height="1110"  style="background-color:white;" >
                                            <defs id="canvasGridDefs">
                                                <pattern id="smallGrid" width="5" height="5" patternUnits="userSpaceOnUse">
                                                    <path id="smallGridPath" d="M 5 0 L 0 0 0 5" fill="none" stroke="lightgray" stroke-width="0.5"></path>
                                                </pattern>
                                                <pattern id="watermarkGrid" width="220" height="80" patternUnits="userSpaceOnUse">
                                                    <rect id="watermarkGridPath0" x="0" y="0" width="220" height="80" fill="white"></rect>
                                                    <text x="60" y="55" transform="rotate(-30 90,90)" fill="#eeeeee" font-family="Arial" font-size="16">Flowdia Diagrams </text>
                                                </pattern>

                                            </defs>
                                            <rect id="canvasGrid" width="100%" height="100%" fill="white"></rect>
                                            <rect id="shapeSelectGrid" width="0" height="0" x="0" y="0" fill="gray" stroke="gray" fill-opacity="0.2" stroke-width="1"></rect>
                                            <circle id="selectionMarker" cx="0" cy="0" r="50" fill="darkslateblue" stroke="darkslateblue" fill-opacity="0.2" stroke-width="0" style="display:none;"></circle>
                                        <rect id="bordersquarec7b6c7c1-c301-483b-bb5f-a0213d71012c" x="140" y="60" height="630" width="350" rx="0" ry="0" fill="white" fill-opacity="1" stroke-opacity="1" stroke="black"></rect><text id="bordersquarec7b6c7c1-c301-483b-bb5f-a0213d71012cText" x="140" y="365.9090905189514" fill="black" font-size="12" font-family="Arial" font-weight="normal" text-anchor="middle"><tspan x="315" dy="14.181818962097168"> </tspan></text><rect id="735f9eac-9f1e-4ac2-a987-bc45b1ff7b8d" x="135" y="55" height="640" width="360" stroke-width="1" stroke-dasharray="3,1" fill="none" stroke="none"></rect><path id="actor486d58aa-4935-41fa-a86a-26ffbf166fc1" d="M 45 45 m 23.082706766917294 16.917293233082706 a 16.917293233082706 16.917293233082706  0 0  1   33.83458646616541 0 m -33.83458646616541 0 a 16.917293233082706 16.917293233082706  0 0  0   33.83458646616541 0 m -16.917293233082706 16.917293233082706 l 0 33.83458646616541 m -16.917293233082706 -16.917293233082706 l 33.83458646616541 0 m -16.917293233082706 16.917293233082706 l -16.917293233082706 27 m 16.917293233082706 -27 l 16.917293233082706 27 " fill="white" fill-opacity="1" stroke-opacity="1" stroke="black" fill-rule="nonzero"></path><text id="actor486d58aa-4935-41fa-a86a-26ffbf166fc1Text" x="45" y="145" fill="black" font-size="12" font-family="Arial" font-weight="normal" text-anchor="middle"><tspan x="85" dy="14.181818962097168">Administrator </tspan></text><rect id="c221197b-d6fc-4784-b365-76f8d924d937" x="40" y="40" height="100" width="90" stroke-width="1" stroke-dasharray="3,1" fill="none" stroke="none"></rect><path id="actorf8076544-d2e7-42e1-8884-165470328888" d="M 50 440 m 13.082706766917294 16.917293233082706 a 16.917293233082706 16.917293233082706  0 0  1   33.83458646616541 0 m -33.83458646616541 0 a 16.917293233082706 16.917293233082706  0 0  0   33.83458646616541 0 m -16.917293233082706 16.917293233082706 l 0 33.83458646616541 m -16.917293233082706 -16.917293233082706 l 33.83458646616541 0 m -16.917293233082706 16.917293233082706 l -16.917293233082706 27 m 16.917293233082706 -27 l 16.917293233082706 27 " fill="white" fill-opacity="1" stroke-opacity="1" stroke="black" fill-rule="nonzero"></path><text id="actorf8076544-d2e7-42e1-8884-165470328888Text" x="50" y="540" fill="black" font-size="12" font-family="Arial" font-weight="normal" text-anchor="middle"><tspan x="80" dy="14.181818962097168">Mitglied  </tspan></text><rect id="702b8928-78ed-4ca9-8bdf-e4df8d8aeea1" x="45" y="435" height="100" width="70" stroke-width="1" stroke-dasharray="3,1" fill="none" stroke="none"></rect><path id="actor6661a1f0-0b31-4717-8a76-6f1c4386b27a" d="M 40 285 m 28.082706766917294 16.917293233082706 a 16.917293233082706 16.917293233082706  0 0  1   33.83458646616541 0 m -33.83458646616541 0 a 16.917293233082706 16.917293233082706  0 0  0   33.83458646616541 0 m -16.917293233082706 16.917293233082706 l 0 33.83458646616541 m -16.917293233082706 -16.917293233082706 l 33.83458646616541 0 m -16.917293233082706 16.917293233082706 l -16.917293233082706 27 m 16.917293233082706 -27 l 16.917293233082706 27 " fill="white" fill-opacity="1" stroke-opacity="1" stroke="black" fill-rule="nonzero"></path><text id="actor6661a1f0-0b31-4717-8a76-6f1c4386b27aText" x="40" y="385" fill="black" font-size="12" font-family="Arial" font-weight="normal" text-anchor="middle"><tspan x="85" dy="14.181818962097168">Vorstand </tspan></text><rect id="21520bad-cb19-4656-82fe-7304d33770f3" x="35" y="280" height="100" width="100" stroke-width="1" stroke-dasharray="3,1" fill="none" stroke="none"></rect><path id="actoref459add-ffda-4fa7-bda0-8b5b7e15c518" d="M 525 210 m 0 17.5 a 17.5 17.5  0 0  1   35 0 m -35 0 a 17.5 17.5  0 0  0   35 0 m -17.5 17.5 l 0 35 m -17.5 -17.5 l 35 0 m -17.5 17.5 l -17.5 31.5 m 17.5 -31.5 l 17.5 31.5 " fill="white" fill-opacity="1" stroke-opacity="1" stroke="black" fill-rule="nonzero"></path><text id="actoref459add-ffda-4fa7-bda0-8b5b7e15c518Text" x="525" y="325" fill="black" font-size="12" font-family="Arial" font-weight="normal" text-anchor="middle"><tspan x="542.5" dy="14.181818962097168">Gast </tspan></text><rect id="659d8d4d-0fa6-4bdf-820f-04a2d62e36ad" x="520" y="205" height="115" width="45" stroke-width="1" stroke-dasharray="3,1" fill="none" stroke="none"></rect><path id="actor362ca1d3-33df-410e-9efd-3d271bddcb50" d="M 520 410 m 13.082706766917294 16.917293233082706 a 16.917293233082706 16.917293233082706  0 0  1   33.83458646616541 0 m -33.83458646616541 0 a 16.917293233082706 16.917293233082706  0 0  0   33.83458646616541 0 m -16.917293233082706 16.917293233082706 l 0 33.83458646616541 m -16.917293233082706 -16.917293233082706 l 33.83458646616541 0 m -16.917293233082706 16.917293233082706 l -16.917293233082706 27 m 16.917293233082706 -27 l 16.917293233082706 27 " fill="white" fill-opacity="1" stroke-opacity="1" stroke="black" fill-rule="nonzero"></path><text id="actor362ca1d3-33df-410e-9efd-3d271bddcb50Text" x="520" y="510" fill="black" font-size="12" font-family="Arial" font-weight="normal" text-anchor="middle"><tspan x="550" dy="14.181818962097168">Spielführer </tspan><tspan x="550" dy="14.181818962097168"> </tspan></text><rect id="7d385527-3967-4636-b3fc-a568877bbb1e" x="515" y="405" height="100" width="70" stroke-width="1" stroke-dasharray="3,1" fill="none" stroke="none"></rect><ellipse id="usecased5a17cf1-c15c-4dd9-a865-955ef08771bb" cx="270" cy="155" rx="50" ry="25" fill="white" fill-opacity="1" stroke-opacity="1" stroke="black"></ellipse><text id="usecased5a17cf1-c15c-4dd9-a865-955ef08771bbText" x="220" y="138.81818103790283" fill="black" font-size="12" font-family="Arial" font-weight="normal" text-anchor="middle"><tspan x="270" dy="14.181818962097168">Golfplatz </tspan><tspan x="270" dy="14.181818962097168">Verwalten </tspan></text><rect id="0baa3c52-e485-463d-858f-89dbce7f4f2a" x="215" y="125" height="60" width="110" stroke-width="1" stroke-dasharray="3,1" fill="none" stroke="none"></rect><ellipse id="usecase85587905-3e47-44db-9a0e-fb3f0d2e70ac" cx="280" cy="265" rx="50" ry="25" fill="white" fill-opacity="1" stroke-opacity="1" stroke="black"></ellipse><text id="usecase85587905-3e47-44db-9a0e-fb3f0d2e70acText" x="230" y="255.90909051895142" fill="black" font-size="12" font-family="Arial" font-weight="normal" text-anchor="middle"><tspan x="280" dy="14.181818962097168">Bahn Verwalten </tspan></text><rect id="43785677-d8fb-45dd-aab2-007100ca7a49" x="225" y="235" height="60" width="110" stroke-width="1" stroke-dasharray="3,1" fill="none" stroke="none"></rect><ellipse id="usecasef2088320-fd99-4d2c-b2b9-39aa145444fc" cx="265" cy="360" rx="55" ry="25" fill="white" fill-opacity="1" stroke-opacity="1" stroke="black"></ellipse><text id="usecasef2088320-fd99-4d2c-b2b9-39aa145444fcText" x="210" y="343.81818103790283" fill="black" font-size="12" font-family="Arial" font-weight="normal" text-anchor="middle"><tspan x="265" dy="14.181818962097168">Mitglieder </tspan><tspan x="265" dy="14.181818962097168">Verwalten </tspan></text><rect id="7d549ef0-f792-4d43-bfe9-16f40e1d78d2" x="205" y="330" height="60" width="120" stroke-width="1" stroke-dasharray="3,1" fill="none" stroke="none"></rect><ellipse id="usecase6c03a976-9290-45b3-9e16-329caf105c79" cx="290" cy="505" rx="50" ry="25" fill="white" fill-opacity="1" stroke-opacity="1" stroke="black"></ellipse><text id="usecase6c03a976-9290-45b3-9e16-329caf105c79Text" x="240" y="495.9090905189514" fill="black" font-size="12" font-family="Arial" font-weight="normal" text-anchor="middle"><tspan x="290" dy="14.181818962097168">Turnier Anlegen </tspan></text><rect id="2dfe67eb-9ca2-4383-b957-d191a723f50f" x="235" y="475" height="60" width="110" stroke-width="1" stroke-dasharray="3,1" fill="none" stroke="none"></rect><ellipse id="usecase54a839a8-2843-40d7-84c3-046d7b63d221" cx="340" cy="445" rx="50" ry="25" fill="white" fill-opacity="1" stroke-opacity="1" stroke="black"></ellipse><text id="usecase54a839a8-2843-40d7-84c3-046d7b63d221Text" x="290" y="428.81818103790283" fill="black" font-size="12" font-family="Arial" font-weight="normal" text-anchor="middle"><tspan x="340" dy="14.181818962097168">Zu Turnier </tspan><tspan x="340" dy="14.181818962097168">Anmelden </tspan></text><rect id="98c22c69-d474-4e11-afec-f63eef393761" x="285" y="415" height="60" width="110" stroke-width="1" stroke-dasharray="3,1" fill="none" stroke="none"></rect><ellipse id="usecasee1419940-0293-4cdb-8af1-c73bd0a3123f" cx="220" cy="575" rx="50" ry="25" fill="white" fill-opacity="1" stroke-opacity="1" stroke="black"></ellipse><text id="usecasee1419940-0293-4cdb-8af1-c73bd0a3123fText" x="170" y="558.8181810379028" fill="black" font-size="12" font-family="Arial" font-weight="normal" text-anchor="middle"><tspan x="220" dy="14.181818962097168">Von Turnier </tspan><tspan x="220" dy="14.181818962097168">Abmelden </tspan></text><rect id="6d617070-c6b0-4965-90aa-c3c3bdf33470" x="165" y="545" height="60" width="110" stroke-width="1" stroke-dasharray="3,1" fill="none" stroke="none"></rect><ellipse id="usecasebc5a7488-2658-4b2b-b26d-16a1402e8180" cx="310" cy="620" rx="50" ry="25" fill="white" fill-opacity="1" stroke-opacity="1" stroke="black"></ellipse><text id="usecasebc5a7488-2658-4b2b-b26d-16a1402e8180Text" x="260" y="610.9090905189514" fill="black" font-size="12" font-family="Arial" font-weight="normal" text-anchor="middle"><tspan x="310" dy="14.181818962097168">Turnier Stornieren </tspan></text><rect id="e6718832-736e-41c7-95ea-79a55a794c90" x="255" y="590" height="60" width="110" stroke-width="1" stroke-dasharray="3,1" fill="none" stroke="none"></rect><ellipse id="usecase80d2ac53-8e65-4b0e-ba29-871c57ae0d44" cx="420" cy="635" rx="50" ry="25" fill="white" fill-opacity="1" stroke-opacity="1" stroke="black"></ellipse><text id="usecase80d2ac53-8e65-4b0e-ba29-871c57ae0d44Text" x="370" y="618.8181810379028" fill="black" font-size="12" font-family="Arial" font-weight="normal" text-anchor="middle"><tspan x="420" dy="14.181818962097168">Turnier </tspan><tspan x="420" dy="14.181818962097168">Auswertung </tspan></text><rect id="3c9587fe-8663-443f-bb46-8b143085ff33" x="365" y="605" height="60" width="110" stroke-width="1" stroke-dasharray="3,1" fill="none" stroke="none"></rect><path id="line42ac39f6-9e20-4336-85af-8798d502ee8a" d="M 110 485 Q 130 485 140 530 Q 150 575 170 575" x1="110" y1="485" x2="170" y2="575" fill="none" stroke="black" stroke-width="1"></path><path id="line42ac39f6-9e20-4336-85af-8798d502ee8aback" d="M 110 485 Q 130 485 140 530 Q 150 575 170 575" x1="110" y1="485" x2="170" y2="575" fill="none" stroke="gray" stroke-width="15" opacity="0"></path><path id="line19040b03-aab0-4dc0-8c7a-657cb3a425eb" d="M 110 485 Q 130 485 200 465 Q 270 445 290 445" x1="110" y1="485" x2="290" y2="445" fill="none" stroke="black" stroke-width="1"></path><path id="line19040b03-aab0-4dc0-8c7a-657cb3a425ebback" d="M 110 485 Q 130 485 200 465 Q 270 445 290 445" x1="110" y1="485" x2="290" y2="445" fill="none" stroke="gray" stroke-width="15" opacity="0"></path><path id="line4e969027-229e-4e35-aa0c-56ac175116e3" d="M 525 262.5 Q 505 262.5 457.5 353.75 Q 410 445 390 445" x1="525" y1="262.5" x2="390" y2="445" fill="none" stroke="black" stroke-width="1"></path><path id="line4e969027-229e-4e35-aa0c-56ac175116e3back" d="M 525 262.5 Q 505 262.5 457.5 353.75 Q 410 445 390 445" x1="525" y1="262.5" x2="390" y2="445" fill="none" stroke="gray" stroke-width="15" opacity="0"></path><path id="linea8743ff4-67c9-422f-92e7-da7c3a485838" d="M 125 90 Q 145 90 177.5 177.5 Q 210 265 230 265" x1="125" y1="90" x2="230" y2="265" fill="none" stroke="black" stroke-width="1"></path><path id="linea8743ff4-67c9-422f-92e7-da7c3a485838back" d="M 125 90 Q 145 90 177.5 177.5 Q 210 265 230 265" x1="125" y1="90" x2="230" y2="265" fill="none" stroke="gray" stroke-width="15" opacity="0"></path><path id="line17ee35b2-5e17-499f-b6a0-4583ee8aa51f" d="M 125 90 Q 145 90 172.5 122.5 Q 200 155 220 155" x1="125" y1="90" x2="220" y2="155" fill="none" stroke="black" stroke-width="1"></path><path id="line17ee35b2-5e17-499f-b6a0-4583ee8aa51fback" d="M 125 90 Q 145 90 172.5 122.5 Q 200 155 220 155" x1="125" y1="90" x2="220" y2="155" fill="none" stroke="gray" stroke-width="15" opacity="0"></path><path id="lined306a0e4-5097-435c-894c-96d8c1746d0d" d="M 520 455 Q 500 455 430 480 Q 360 505 340 505" x1="520" y1="455" x2="340" y2="505" fill="none" stroke="black" stroke-width="1"></path><path id="lined306a0e4-5097-435c-894c-96d8c1746d0dback" d="M 520 455 Q 500 455 430 480 Q 360 505 340 505" x1="520" y1="455" x2="340" y2="505" fill="none" stroke="gray" stroke-width="15" opacity="0"></path><path id="line49dba893-a311-46b0-bea8-6402312534da" d="M 130 330 Q 150 330 170 345 Q 190 360 210 360" x1="130" y1="330" x2="210" y2="360" fill="none" stroke="black" stroke-width="1"></path><path id="line49dba893-a311-46b0-bea8-6402312534daback" d="M 130 330 Q 150 330 170 345 Q 190 360 210 360" x1="130" y1="330" x2="210" y2="360" fill="none" stroke="gray" stroke-width="15" opacity="0"></path><path id="line01522b24-2322-4ea8-a190-e47f758d4498" d="M 130 330 Q 150 330 150 452.5 Q 150 575 170 575" x1="130" y1="330" x2="170" y2="575" fill="none" stroke="black" stroke-width="1"></path><path id="line01522b24-2322-4ea8-a190-e47f758d4498back" d="M 130 330 Q 150 330 150 452.5 Q 150 575 170 575" x1="130" y1="330" x2="170" y2="575" fill="none" stroke="gray" stroke-width="15" opacity="0"></path><path id="line7343b4ad-0e76-443a-a07c-2361f7a00b1e" d="M 130 330 Q 150 330 210 387.5 Q 270 445 290 445" x1="130" y1="330" x2="290" y2="445" fill="none" stroke="black" stroke-width="1"></path><path id="line7343b4ad-0e76-443a-a07c-2361f7a00b1eback" d="M 130 330 Q 150 330 210 387.5 Q 270 445 290 445" x1="130" y1="330" x2="290" y2="445" fill="none" stroke="gray" stroke-width="15" opacity="0"></path><path id="linea37088b6-b2c7-4ff2-9ffe-edafd9989142" d="M 520 455 Q 500 455 455 450 Q 410 445 390 445" x1="520" y1="455" x2="390" y2="445" fill="none" stroke="black" stroke-width="1"></path><path id="linea37088b6-b2c7-4ff2-9ffe-edafd9989142back" d="M 520 455 Q 500 455 455 450 Q 410 445 390 445" x1="520" y1="455" x2="390" y2="445" fill="none" stroke="gray" stroke-width="15" opacity="0"></path><path id="line6255d656-8077-4123-a361-560ecd93eece" d="M 520 455 Q 500 455 395 515 Q 290 575 270 575" x1="520" y1="455" x2="270" y2="575" fill="none" stroke="black" stroke-width="1"></path><path id="line6255d656-8077-4123-a361-560ecd93eeceback" d="M 520 455 Q 500 455 395 515 Q 290 575 270 575" x1="520" y1="455" x2="270" y2="575" fill="none" stroke="gray" stroke-width="15" opacity="0"></path><path id="line36aaab45-7247-422b-89e6-c232ba0a0b8e" d="M 520 455 Q 500 455 440 537.5 Q 380 620 360 620" x1="520" y1="455" x2="360" y2="620" fill="none" stroke="black" stroke-width="1"></path><path id="line36aaab45-7247-422b-89e6-c232ba0a0b8eback" d="M 520 455 Q 500 455 440 537.5 Q 380 620 360 620" x1="520" y1="455" x2="360" y2="620" fill="none" stroke="gray" stroke-width="15" opacity="0"></path><path id="line0e8f221a-4f32-4e1a-a487-2a56ed41e725" d="M 520 455 Q 500 455 495 545 Q 490 635 470 635" x1="520" y1="455" x2="470" y2="635" fill="none" stroke="black" stroke-width="1"></path><path id="line0e8f221a-4f32-4e1a-a487-2a56ed41e725back" d="M 520 455 Q 500 455 495 545 Q 490 635 470 635" x1="520" y1="455" x2="470" y2="635" fill="none" stroke="gray" stroke-width="15" opacity="0"></path><rect id="textonly4df3b14a-92b9-41a2-83dc-8deabf7eb56e" x="220" y="70" height="50" width="190" rx="0" ry="0" fill="white" fill-opacity="1" stroke-opacity="1" stroke="transparent"></rect><text id="textonly4df3b14a-92b9-41a2-83dc-8deabf7eb56eText" x="220" y="85.90909051895142" fill="black" font-size="12" font-family="Arial" font-weight="normal" text-anchor="middle"><tspan x="315" dy="14.181818962097168">Club Pro </tspan></text><rect id="f2f65bdf-49fc-4a4c-bade-7078588b42c8" x="215" y="65" height="60" width="200" stroke-width="1" stroke-dasharray="3,1" fill="none" stroke="none"></rect><text x="565" y="1090" fill="#252526" font-size="14" font-family="Arial" font-weight="bold" opacity="1">Flowdia Diagrams Lite Version</text></svg>